<mxfile host="app.diagrams.net" modified="2023-08-21T06:08:49.885Z" agent="Mozilla/5.0 (Windows NT 10.0; Win64; x64) AppleWebKit/537.36 (KHTML, like Gecko) Chrome/115.0.0.0 Safari/537.36" etag="MAdqYFzcg_LvOeY8Bwl8" version="21.6.8" type="device">
  <diagram name="Page-1" id="D0KcOLBW1-DCz5VxT7f4">
    <mxGraphModel dx="1284" dy="659" grid="1" gridSize="10" guides="1" tooltips="1" connect="1" arrows="1" fold="1" page="1" pageScale="1" pageWidth="827" pageHeight="1169" math="0" shadow="0">
      <root>
        <mxCell id="0" />
        <mxCell id="1" parent="0" />
        <mxCell id="SIKvROgh-WVFHEckJY2E-20" style="edgeStyle=orthogonalEdgeStyle;rounded=0;orthogonalLoop=1;jettySize=auto;html=1;" edge="1" parent="1" source="SIKvROgh-WVFHEckJY2E-2">
          <mxGeometry relative="1" as="geometry">
            <mxPoint x="351" y="160" as="targetPoint" />
          </mxGeometry>
        </mxCell>
        <mxCell id="SIKvROgh-WVFHEckJY2E-2" value="&lt;font style=&quot;font-size: 16px;&quot;&gt;Package.json&lt;br&gt;(npm install)&lt;br&gt;npm start method&amp;nbsp;&amp;nbsp;&lt;/font&gt;" style="rounded=0;whiteSpace=wrap;html=1;fillColor=#dae8fc;strokeColor=#6c8ebf;" vertex="1" parent="1">
          <mxGeometry x="266" y="57" width="170" height="60" as="geometry" />
        </mxCell>
        <mxCell id="SIKvROgh-WVFHEckJY2E-3" value="&lt;span style=&quot;font-size: 22px;&quot;&gt;&lt;b&gt;&lt;u&gt;--:ROUTES FLOWCHART :--&lt;/u&gt;&lt;/b&gt;&lt;/span&gt;" style="text;html=1;align=center;verticalAlign=middle;resizable=0;points=[];autosize=1;strokeColor=none;fillColor=none;" vertex="1" parent="1">
          <mxGeometry x="195" width="310" height="40" as="geometry" />
        </mxCell>
        <mxCell id="SIKvROgh-WVFHEckJY2E-23" style="edgeStyle=orthogonalEdgeStyle;rounded=0;orthogonalLoop=1;jettySize=auto;html=1;" edge="1" parent="1" source="SIKvROgh-WVFHEckJY2E-10">
          <mxGeometry relative="1" as="geometry">
            <mxPoint x="350" y="317" as="targetPoint" />
          </mxGeometry>
        </mxCell>
        <mxCell id="SIKvROgh-WVFHEckJY2E-10" value="&lt;font style=&quot;font-size: 16px;&quot;&gt;Main index.js file&amp;nbsp;&lt;/font&gt;" style="shape=parallelogram;perimeter=parallelogramPerimeter;whiteSpace=wrap;html=1;fixedSize=1;fillColor=#d5e8d4;strokeColor=#82b366;" vertex="1" parent="1">
          <mxGeometry x="255" y="240" width="190" height="40" as="geometry" />
        </mxCell>
        <mxCell id="SIKvROgh-WVFHEckJY2E-18" value="&lt;font style=&quot;font-size: 16px;&quot;&gt;Cannot find module&lt;br&gt;(npm start path not find)&lt;br&gt;&lt;/font&gt;" style="rounded=0;whiteSpace=wrap;html=1;fillColor=#f8cecc;strokeColor=#b85450;" vertex="1" parent="1">
          <mxGeometry x="543" y="239" width="200" height="43" as="geometry" />
        </mxCell>
        <mxCell id="SIKvROgh-WVFHEckJY2E-21" value="NO" style="text;html=1;align=center;verticalAlign=middle;resizable=0;points=[];autosize=1;strokeColor=none;fillColor=none;" vertex="1" parent="1">
          <mxGeometry x="452" y="155" width="40" height="30" as="geometry" />
        </mxCell>
        <mxCell id="SIKvROgh-WVFHEckJY2E-22" value="YES&lt;br&gt;" style="text;html=1;align=center;verticalAlign=middle;resizable=0;points=[];autosize=1;strokeColor=none;fillColor=none;" vertex="1" parent="1">
          <mxGeometry x="311" y="201" width="50" height="30" as="geometry" />
        </mxCell>
        <mxCell id="SIKvROgh-WVFHEckJY2E-27" style="edgeStyle=orthogonalEdgeStyle;rounded=0;orthogonalLoop=1;jettySize=auto;html=1;" edge="1" parent="1" source="SIKvROgh-WVFHEckJY2E-24">
          <mxGeometry relative="1" as="geometry">
            <mxPoint x="350" y="417" as="targetPoint" />
          </mxGeometry>
        </mxCell>
        <mxCell id="SIKvROgh-WVFHEckJY2E-24" value="&lt;font style=&quot;font-size: 16px;&quot;&gt;Routes Namespace&amp;nbsp;&lt;br&gt;&amp;nbsp;Checking&lt;br&gt;&lt;/font&gt;" style="ellipse;whiteSpace=wrap;html=1;fillColor=#d5e8d4;strokeColor=#82b366;" vertex="1" parent="1">
          <mxGeometry x="235" y="317" width="230" height="60" as="geometry" />
        </mxCell>
        <mxCell id="SIKvROgh-WVFHEckJY2E-35" style="edgeStyle=orthogonalEdgeStyle;rounded=0;orthogonalLoop=1;jettySize=auto;html=1;entryX=0.5;entryY=0;entryDx=0;entryDy=0;" edge="1" parent="1" source="SIKvROgh-WVFHEckJY2E-28" target="SIKvROgh-WVFHEckJY2E-10">
          <mxGeometry relative="1" as="geometry" />
        </mxCell>
        <mxCell id="SIKvROgh-WVFHEckJY2E-36" style="edgeStyle=orthogonalEdgeStyle;rounded=0;orthogonalLoop=1;jettySize=auto;html=1;entryX=0.5;entryY=0;entryDx=0;entryDy=0;" edge="1" parent="1" source="SIKvROgh-WVFHEckJY2E-28" target="SIKvROgh-WVFHEckJY2E-18">
          <mxGeometry relative="1" as="geometry" />
        </mxCell>
        <mxCell id="SIKvROgh-WVFHEckJY2E-28" value="script&amp;nbsp;&lt;br&gt;(npm start method)" style="shape=hexagon;perimeter=hexagonPerimeter2;whiteSpace=wrap;html=1;fixedSize=1;fillColor=#d5e8d4;strokeColor=#82b366;" vertex="1" parent="1">
          <mxGeometry x="260" y="160" width="180" height="40" as="geometry" />
        </mxCell>
        <mxCell id="SIKvROgh-WVFHEckJY2E-37" value="Error" style="text;html=1;align=center;verticalAlign=middle;resizable=0;points=[];autosize=1;strokeColor=none;fillColor=none;" vertex="1" parent="1">
          <mxGeometry x="595" y="208" width="50" height="30" as="geometry" />
        </mxCell>
        <mxCell id="SIKvROgh-WVFHEckJY2E-38" value="YES" style="text;html=1;align=center;verticalAlign=middle;resizable=0;points=[];autosize=1;strokeColor=none;fillColor=none;" vertex="1" parent="1">
          <mxGeometry x="310" y="278" width="50" height="30" as="geometry" />
        </mxCell>
        <mxCell id="SIKvROgh-WVFHEckJY2E-39" value="YES" style="text;html=1;align=center;verticalAlign=middle;resizable=0;points=[];autosize=1;strokeColor=none;fillColor=none;" vertex="1" parent="1">
          <mxGeometry x="311" y="375" width="50" height="30" as="geometry" />
        </mxCell>
        <mxCell id="SIKvROgh-WVFHEckJY2E-41" style="edgeStyle=orthogonalEdgeStyle;rounded=0;orthogonalLoop=1;jettySize=auto;html=1;" edge="1" parent="1" source="SIKvROgh-WVFHEckJY2E-40">
          <mxGeometry relative="1" as="geometry">
            <mxPoint x="350" y="500" as="targetPoint" />
          </mxGeometry>
        </mxCell>
        <mxCell id="SIKvROgh-WVFHEckJY2E-40" value="&lt;span style=&quot;font-size: 16px;&quot;&gt;Routes main index.js file&amp;nbsp;&lt;/span&gt;" style="rounded=0;whiteSpace=wrap;html=1;fillColor=#d5e8d4;strokeColor=#82b366;" vertex="1" parent="1">
          <mxGeometry x="260" y="417" width="180" height="43" as="geometry" />
        </mxCell>
        <mxCell id="SIKvROgh-WVFHEckJY2E-45" style="edgeStyle=orthogonalEdgeStyle;rounded=0;orthogonalLoop=1;jettySize=auto;html=1;" edge="1" parent="1" source="SIKvROgh-WVFHEckJY2E-42">
          <mxGeometry relative="1" as="geometry">
            <mxPoint x="350" y="590" as="targetPoint" />
          </mxGeometry>
        </mxCell>
        <mxCell id="SIKvROgh-WVFHEckJY2E-42" value="Routes na Folder ma Particular&lt;br&gt;Method Vise Routes nu name checking" style="rounded=1;whiteSpace=wrap;html=1;fillColor=#d5e8d4;strokeColor=#82b366;" vertex="1" parent="1">
          <mxGeometry x="260" y="500" width="180" height="50" as="geometry" />
        </mxCell>
        <mxCell id="SIKvROgh-WVFHEckJY2E-43" value="YES" style="text;html=1;align=center;verticalAlign=middle;resizable=0;points=[];autosize=1;strokeColor=none;fillColor=none;" vertex="1" parent="1">
          <mxGeometry x="310" y="458" width="50" height="30" as="geometry" />
        </mxCell>
        <mxCell id="SIKvROgh-WVFHEckJY2E-46" value="Method Vise kay Method &lt;br&gt;use karvani che te&lt;br&gt;(Ex :- get,post ,delete etc..)" style="ellipse;whiteSpace=wrap;html=1;fillColor=#dae8fc;strokeColor=#6c8ebf;" vertex="1" parent="1">
          <mxGeometry x="250" y="590" width="200" height="90" as="geometry" />
        </mxCell>
        <mxCell id="SIKvROgh-WVFHEckJY2E-47" value="YES" style="text;html=1;align=center;verticalAlign=middle;resizable=0;points=[];autosize=1;strokeColor=none;fillColor=none;" vertex="1" parent="1">
          <mxGeometry x="309" y="548" width="50" height="30" as="geometry" />
        </mxCell>
      </root>
    </mxGraphModel>
  </diagram>
</mxfile>
